HIERARCHY
ROOT root
{
    OFFSET 0.000000 0.000000 0.000000
    CHANNELS 6 Xposition Yposition Zposition Zrotation Xrotation Yrotation
}
MOTION
Frames:    140
Frame Time:    0.010000
53.136051    166.866211    -12.831945    176.513931    -26.578876    165.632782    
53.234760    166.968567    -12.758829    176.455627    -26.572910    165.628906    
53.322525    167.042480    -12.644845    176.326324    -26.679579    165.572495    
53.389008    167.104965    -12.579407    176.378876    -26.503647    165.428589    
53.417194    167.148865    -12.550984    176.550629    -26.336521    165.404434    
53.514671    167.251358    -12.487895    176.458221    -26.229424    165.376801    
53.609161    167.344849    -12.397514    176.347427    -26.384901    165.313675    
53.682526    167.418030    -12.329308    176.360321    -26.431494    165.276489    
53.710793    167.450989    -12.326143    176.578247    -26.090572    165.265305    
53.740482    167.523178    -12.307422    176.696213    -25.992065    165.259033    
53.807076    167.577728    -12.263855    176.548096    -25.884068    165.160477    
53.835648    167.646545    -12.231918    176.547501    -25.757545    165.071609    
53.849995    167.698639    -12.226253    176.789322    -25.473728    165.024841    
53.878872    167.808014    -12.179570    176.823639    -25.539900    164.943726    
53.939350    167.888824    -12.087306    176.693985    -25.704632    164.831863    
53.980572    167.981308    -12.025168    176.842667    -25.654346    164.840576    
54.049038    168.059891    -11.998122    176.774857    -25.557640    164.834015    
54.122055    168.164246    -11.910419    176.915787    -25.632174    164.889832    
54.189259    168.274887    -11.823781    176.901611    -25.793140    164.832520    
54.242313    168.338852    -11.773032    176.989258    -25.721176    164.897278    
54.299950    168.425293    -11.747049    176.945557    -25.606312    164.825958    
54.329021    168.505249    -11.700879    176.967285    -25.636166    164.804947    
54.375881    168.576172    -11.663251    177.018967    -25.519905    164.761826    
54.398544    168.652939    -11.630227    177.115051    -25.556114    164.733276    
54.419315    168.709900    -11.562820    177.222977    -25.613861    164.671860    
54.481422    168.757553    -11.514223    177.129669    -25.641867    164.601410    
54.524021    168.833069    -11.458757    176.991638    -25.670654    164.467667    
54.574158    168.903214    -11.436670    177.081131    -25.547991    164.435272    
54.630764    168.962479    -11.350774    177.161758    -25.683649    164.425690    
54.667496    169.038849    -11.291423    177.260559    -25.845291    164.426437    
54.735355    169.080460    -11.220414    177.203506    -25.892893    164.332520    
54.848129    169.134079    -11.186399    177.028351    -25.872614    164.255768    
54.936760    169.205215    -11.107041    176.874191    -26.054718    164.210312    
55.068130    169.253616    -11.086781    176.787827    -26.014366    164.329010    
55.186260    169.306305    -11.074733    176.665665    -25.911669    164.344345    
55.299068    169.373718    -11.002539    176.500610    -26.014914    164.272522    
55.398071    169.409546    -11.017105    176.624054    -25.898594    164.422180    
55.518066    169.461655    -10.985231    176.670654    -25.975304    164.528351    
55.615746    169.496078    -10.992682    176.707916    -25.894590    164.640121    
55.726040    169.522308    -10.963965    176.671478    -25.861017    164.652832    
55.854309    169.561966    -10.980427    176.449966    -25.658909    164.603104    
55.957424    169.599731    -10.981841    176.315643    -25.596931    164.604782    
56.090267    169.633835    -11.024954    176.273026    -25.482906    164.710815    
56.197418    169.675720    -11.006937    176.295029    -25.454838    164.779327    
56.266014    169.706985    -11.007472    176.379013    -25.397610    164.691513    
56.354374    169.797623    -11.031174    176.620071    -25.380606    164.894958    
56.434788    169.858246    -11.039312    176.667145    -25.373264    164.918915    
56.509399    169.918198    -11.027771    176.691910    -25.394871    164.833450    
56.571476    169.980988    -11.032133    176.664459    -25.365431    164.726822    
56.642426    170.090515    -11.040977    176.641098    -25.274101    164.660553    
56.699745    170.218307    -11.017181    176.788834    -25.353779    164.638931    
56.749992    170.298416    -10.997164    176.872635    -25.435276    164.592880    
56.815632    170.374664    -10.985106    176.848709    -25.557779    164.535995    
56.884193    170.423920    -10.950325    176.984055    -25.573759    164.467087    
56.907814    170.511002    -10.981481    177.244949    -25.444214    164.482269    
56.975468    170.591537    -11.005344    177.344391    -25.446756    164.541351    
57.051182    170.666290    -11.006948    177.401764    -25.477854    164.519058    
57.137768    170.749573    -11.014029    177.619659    -25.482574    164.629440    
57.203857    170.826874    -10.966343    177.807938    -25.532854    164.640503    
57.327915    170.897491    -10.968951    177.667908    -25.542610    164.597687    
57.456398    170.996033    -10.975986    177.661270    -25.572601    164.631683    
57.557392    171.032257    -10.979433    177.615692    -25.565266    164.497696    
57.661366    171.076447    -11.048603    177.697845    -25.361654    164.622604    
57.759087    171.130234    -11.071810    177.779068    -25.179123    164.619553    
57.915051    171.189514    -11.093306    177.760208    -25.077374    164.721130    
58.063843    171.249390    -11.138651    177.754257    -24.956701    164.800552    
58.156883    171.325668    -11.164329    177.715073    -24.959280    164.721924    
58.306103    171.362335    -11.164293    177.616592    -24.928013    164.651199    
58.438374    171.422623    -11.232593    177.785583    -24.720592    164.808929    
58.572895    171.472412    -11.252265    177.696930    -24.664030    164.722382    
58.719929    171.518936    -11.285333    177.731583    -24.614046    164.856903    
58.870731    171.563156    -11.319530    177.736771    -24.507130    164.875214    
58.997959    171.615158    -11.317398    177.602234    -24.558954    164.732513    
59.155701    171.699585    -11.339550    177.558136    -24.659496    164.798233    
59.302055    171.725403    -11.405469    177.636856    -24.277172    164.810410    
59.446739    171.765106    -11.445033    177.523026    -24.142076    164.727905    
59.620865    171.803574    -11.446143    177.418762    -24.185080    164.731506    
59.750454    171.819412    -11.475379    177.551010    -24.106354    164.793671    
59.882702    171.827927    -11.493359    177.574432    -24.078150    164.827774    
60.036503    171.859619    -11.523314    177.709045    -23.934523    164.894272    
60.233486    171.917297    -11.537622    177.679352    -23.784700    164.991898    
60.416977    171.970581    -11.502989    177.530472    -23.853010    164.881393    
60.618858    172.015350    -11.482135    177.498825    -23.893192    165.015488    
60.819221    172.030579    -11.481074    177.442657    -23.831276    165.110794    
61.063786    172.073685    -11.448344    177.272064    -23.879072    165.160065    
61.276649    172.103745    -11.447791    177.209793    -23.791796    165.327469    
61.509800    172.122345    -11.439096    177.272110    -23.774927    165.596100    
61.702229    172.141190    -11.441548    177.351898    -23.692429    165.767227    
61.915184    172.166031    -11.375029    177.514191    -23.794735    166.058853    
62.129246    172.207642    -11.352256    177.600281    -23.819675    166.239365    
62.316887    172.212921    -11.339993    177.741806    -23.742180    166.467041    
62.505371    172.245377    -11.324674    177.846420    -23.836029    166.625320    
62.664337    172.258881    -11.294187    177.886917    -23.796595    166.745743    
62.788898    172.285370    -11.256264    178.128479    -24.010612    166.793335    
62.894661    172.301559    -11.221217    178.511230    -24.153189    166.952866    
62.973362    172.331558    -11.169554    178.850113    -24.311357    166.947845    
63.042759    172.351715    -11.105580    179.193954    -24.483353    166.934921    
63.140423    172.393555    -11.061957    179.308884    -24.645945    166.989426    
63.234814    172.423645    -10.983460    179.571426    -24.866993    167.020172    
63.330414    172.455399    -10.946281    179.777267    -24.980436    167.050262    
63.406326    172.492386    -10.863016    -179.928528    -25.294298    167.026062    
63.520462    172.503479    -10.805291    -179.649216    -25.496992    167.150803    
63.652946    172.514954    -10.815115    -179.457794    -25.510599    167.281876    
63.777149    172.528763    -10.766033    -179.350021    -25.602501    167.291260    
63.939838    172.517487    -10.778854    -179.283356    -25.521467    167.362274    
64.061317    172.509476    -10.806877    -179.132416    -25.491266    167.476456    
64.188690    172.488983    -10.765153    -178.965256    -25.665556    167.442703    
64.362305    172.474258    -10.824341    -178.821457    -25.622131    167.616608    
64.515610    172.450562    -10.817767    -178.821396    -25.589073    167.674789    
64.671066    172.436417    -10.859095    -178.821793    -25.535458    167.758652    
64.798767    172.406799    -10.876774    -178.696274    -25.499449    167.862183    
64.953430    172.380188    -10.919290    -178.624634    -25.405851    167.980759    
65.131042    172.342438    -10.941447    -178.712463    -25.393272    168.014938    
65.269012    172.322433    -10.963104    -178.591599    -25.322493    168.176727    
65.438103    172.324783    -10.969415    -178.518539    -25.410618    168.372055    
65.583076    172.311722    -10.987304    -178.466690    -25.402443    168.518631    
65.712669    172.296921    -10.976624    -178.383224    -25.472397    168.634995    
65.831764    172.293365    -10.976355    -178.332047    -25.550859    168.743561    
65.945915    172.290070    -10.945080    -178.269913    -25.775702    168.775330    
66.045746    172.281067    -10.966520    -178.171188    -25.743385    168.866806    
66.123489    172.227829    -11.007777    -178.191696    -25.588465    168.825592    
66.212463    172.213776    -10.995097    -178.150208    -25.658987    168.873825    
66.284142    172.191467    -10.971891    -178.099808    -25.778765    168.848587    
66.387711    172.177383    -10.955852    -178.069351    -25.849545    168.934784    
66.509132    172.169128    -10.995857    -178.029205    -25.725636    169.049362    
66.614380    172.173737    -11.000046    -178.034271    -25.748854    169.189728    
66.710129    172.141739    -11.006313    -177.986725    -25.708990    169.245529    
66.801140    172.112442    -11.050250    -177.916855    -25.575277    169.383789    
66.890884    172.089127    -11.076684    -177.793030    -25.526945    169.535980    
66.974976    172.076584    -11.080198    -177.719574    -25.537701    169.627792    
67.089622    172.064453    -11.079522    -177.708969    -25.581032    169.803787    
67.172249    172.028427    -11.128463    -177.597458    -25.393696    169.989212    
67.283096    172.015533    -11.139256    -177.545578    -25.350586    170.207047    
67.357895    172.018692    -11.160661    -177.487762    -25.398481    170.342651    
67.428917    172.008514    -11.142958    -177.378876    -25.519047    170.523834    
67.460808    172.013428    -11.105466    -177.228409    -25.662043    170.598923    
67.504959    172.014709    -11.101274    -177.119415    -25.643887    170.769821    
67.550873    171.992050    -11.101847    -176.962006    -25.620577    170.888901    
67.573273    171.983551    -11.069071    -176.786835    -25.690575    171.025482    
67.579491    171.983994    -11.079238    -176.535263    -25.688459    171.214172    
